<?xml version="1.0" encoding="UTF-8" standalone="no"?>
<svg
   width="65.099998"
   height="65.099998"
   version="1"
   id="svg128"
   sodipodi:docname="tooltip.svg"
   inkscape:version="1.4 (unknown)"
   xmlns:inkscape="http://www.inkscape.org/namespaces/inkscape"
   xmlns:sodipodi="http://sodipodi.sourceforge.net/DTD/sodipodi-0.dtd"
   xmlns:xlink="http://www.w3.org/1999/xlink"
   xmlns="http://www.w3.org/2000/svg"
   xmlns:svg="http://www.w3.org/2000/svg">
  <sodipodi:namedview
     id="namedview130"
     pagecolor="#312a26"
     bordercolor="#000000"
     borderopacity="1"
     inkscape:pageshadow="2"
     inkscape:pageopacity="0.0"
     inkscape:pagecheckerboard="true"
     showgrid="true"
     inkscape:zoom="11.313709"
     inkscape:cx="42.028657"
     inkscape:cy="34.162095"
     inkscape:window-width="1920"
     inkscape:window-height="998"
     inkscape:window-x="0"
     inkscape:window-y="0"
     inkscape:window-maximized="1"
     inkscape:current-layer="svg128"
     inkscape:showpageshadow="2"
     inkscape:deskcolor="#312a26">
    <inkscape:grid
       type="xygrid"
       id="grid934"
       originx="9.0021249"
       originy="9.0021249"
       spacingy="1"
       spacingx="1"
       units="px"
       visible="true" />
  </sodipodi:namedview>
  <defs
     id="defs21">
    <linearGradient
       id="linearGradient15">
      <stop
         offset="0"
         id="stop13" />
      <stop
         stop-color="#000000"
         stop-opacity=".5"
         offset="0.48387"
         id="stop14"
         style="stop-color:#000000;stop-opacity:0.25;" />
      <stop
         stop-opacity="0"
         offset="1"
         id="stop15" />
    </linearGradient>
    <linearGradient
       id="linearGradient12">
      <stop
         offset="0"
         id="stop10" />
      <stop
         stop-color="#000000"
         stop-opacity=".5"
         offset="0.48387"
         id="stop11"
         style="stop-color:#000000;stop-opacity:0.24918567;" />
      <stop
         stop-opacity="0"
         offset="1"
         id="stop12" />
    </linearGradient>
    <linearGradient
       id="linearGradient9">
      <stop
         offset="0"
         id="stop6" />
      <stop
         stop-color="#000000"
         stop-opacity=".5"
         offset="0.48387"
         id="stop8"
         style="stop-color:#000000;stop-opacity:0.25;" />
      <stop
         stop-opacity="0"
         offset="1"
         id="stop9" />
    </linearGradient>
    <linearGradient
       id="linearGradient4">
      <stop
         offset="0"
         id="stop1" />
      <stop
         stop-color="#000000"
         stop-opacity=".5"
         offset="0.48387"
         id="stop2"
         style="stop-color:#000000;stop-opacity:0.25;" />
      <stop
         stop-opacity="0"
         offset="1"
         id="stop4" />
    </linearGradient>
    <style
       id="current-color-scheme"
       type="text/css">
      .ColorScheme-Text {
        color:#31363b;
      }
      .ColorScheme-Background {
        color:#eff0f1;
      }
      .ColorScheme-Highlight {
        color:#3daee9;
      }
      .ColorScheme-ViewText {
        color:#31363b;
      }
      .ColorScheme-ViewBackground {
        color:#fcfcfc;
      }
      .ColorScheme-ViewHover {
        color:#93cee9;
      }
      .ColorScheme-ViewFocus{
        color:#3daee9;
      }
      .ColorScheme-ButtonText {
        color:#31363b;
      }
      .ColorScheme-ButtonBackground {
        color:#eff0f1;
      }
      .ColorScheme-ButtonHover {
        color:#93cee9;
      }
      .ColorScheme-ButtonFocus{
        color:#3daee9;
      }
    </style>
    <linearGradient
       id="linearGradient1058">
      <stop
         offset="0"
         id="stop3" />
      <stop
         stop-color="#000000"
         stop-opacity=".5"
         offset=".48387"
         id="stop5" />
      <stop
         stop-opacity="0"
         offset="1"
         id="stop7" />
    </linearGradient>
    <radialGradient
       id="g"
       cx="74.93"
       cy="25.07"
       r="1.6471"
       gradientTransform="matrix(16.840137,2.8139966e-5,-2.9495516e-5,16.840137,-1186.8718,-286.24862)"
       gradientUnits="userSpaceOnUse"
       xlink:href="#linearGradient9" />
    <linearGradient
       id="linearGradient957"
       x1="83.327003"
       x2="83.327003"
       y1="-965.03003"
       y2="-954.70001"
       gradientTransform="matrix(0.71429,0,0,3,-317.71,3175.1)"
       gradientUnits="userSpaceOnUse"
       xlink:href="#linearGradient4" />
    <radialGradient
       id="radialGradient904"
       cx="74.93"
       cy="25.07"
       r="1.6471"
       gradientTransform="matrix(16.839242,-0.00117266,0.00117338,16.840137,-1186.7823,-286.15915)"
       gradientUnits="userSpaceOnUse"
       xlink:href="#linearGradient12" />
    <radialGradient
       id="radialGradient922"
       cx="74.93"
       cy="25.07"
       r="1.6471"
       gradientTransform="matrix(16.840137,2.5717871e-5,-2.3314566e-5,16.840137,-1186.8718,-286.24862)"
       gradientUnits="userSpaceOnUse"
       xlink:href="#linearGradient1058" />
    <radialGradient
       id="radialGradient940"
       cx="74.93"
       cy="25.07"
       r="1.6471"
       gradientTransform="matrix(16.840137,2.1285267e-5,-2.2299022e-5,16.840137,-1186.8718,-286.24862)"
       gradientUnits="userSpaceOnUse"
       xlink:href="#linearGradient15" />
    <linearGradient
       inkscape:collect="always"
       xlink:href="#linearGradient4"
       id="linearGradient1"
       gradientUnits="userSpaceOnUse"
       gradientTransform="matrix(0.71429,0,0,3,-317.71,3175.1)"
       x1="83.327003"
       y1="-965.03003"
       x2="83.327003"
       y2="-954.70001" />
    <linearGradient
       inkscape:collect="always"
       xlink:href="#linearGradient4"
       id="linearGradient2"
       gradientUnits="userSpaceOnUse"
       gradientTransform="matrix(0.71429,0,0,3,-317.71,3175.1)"
       x1="83.327003"
       y1="-965.03003"
       x2="83.327003"
       y2="-954.70001" />
    <linearGradient
       inkscape:collect="always"
       xlink:href="#linearGradient4"
       id="linearGradient3"
       gradientUnits="userSpaceOnUse"
       gradientTransform="matrix(0.71429,0,0,3,-317.71,3175.1)"
       x1="83.327003"
       y1="-965.03003"
       x2="83.327003"
       y2="-954.70001" />
  </defs>
  <g
     id="shadow-left"
     transform="matrix(-0.55167501,0,0,0.46340701,175.43381,-98.130782)">
    <rect
       transform="rotate(-90)"
       x="-307"
       y="288"
       width="50"
       height="30"
       fill="url(#linearGradient957)"
       id="rect23"
       style="opacity:0.05;fill:url(#linearGradient1)" />
    <rect
       transform="rotate(-90)"
       x="-307"
       y="280"
       width="50"
       height="8"
       fill="none"
       opacity="0.5"
       stroke-width="0.5164"
       id="rect25" />
  </g>
  <g
     id="shadow-bottom"
     transform="matrix(0,0.55167501,0.46340701,0,-98.130782,-110.33385)">
    <rect
       transform="rotate(-90)"
       x="-307"
       y="288"
       width="50"
       height="30"
       fill="url(#linearGradient957)"
       id="rect28"
       style="opacity:0.05;fill:url(#linearGradient2)" />
    <rect
       transform="rotate(-90)"
       x="-307"
       y="280"
       width="50"
       height="8"
       fill="none"
       opacity="0.5"
       stroke-width="0.5164"
       id="rect30" />
  </g>
  <g
     id="shadow-right"
     transform="matrix(0.55167501,0,0,-0.46340701,-110.33385,163.23076)">
    <rect
       transform="rotate(-90)"
       x="-307"
       y="288"
       width="50"
       height="30"
       fill="url(#linearGradient957)"
       id="rect33"
       style="opacity:0.05;fill:url(#linearGradient3)" />
    <rect
       transform="rotate(-90)"
       x="-307"
       y="280"
       width="50"
       height="8"
       fill="none"
       opacity="0.5"
       stroke-width="0.5164"
       id="rect35" />
  </g>
  <g
     id="shadow-topleft"
     transform="matrix(-0.61655204,0,0,0.61655204,67.20621,-62.851161)">
    <path
       d="m 108.99827,101.93975 v 34.00059 H 82.155698 a 7.15802,7.15802 0 0 0 -7.158021,-7.15802 v -26.84257 z"
       fill="url(#g)"
       id="path38"
       style="opacity:0.05;fill:url(#g);stroke-width:0.894753" />
  </g>
  <g
     id="shadow-top"
     transform="matrix(0,-0.55167501,-0.46340701,0,163.23076,175.43381)">
    <rect
       transform="rotate(-90)"
       x="-307"
       y="288"
       width="50"
       height="30"
       fill="url(#linearGradient957)"
       id="rect43"
       style="opacity:0.05;fill:url(#linearGradient957)" />
    <rect
       transform="rotate(-90)"
       x="-307"
       y="280"
       width="50"
       height="8"
       fill="none"
       opacity="0.5"
       stroke-width="0.5164"
       id="rect45" />
  </g>
  <g
     id="top"
     transform="matrix(-0.46338657,0,0,0.63070926,132.17741,-142.38377)">
    <path
       d="m 190,252 h 50 v 6.998 h -50 z"
       class="ColorScheme-Background"
       fill="currentColor"
       id="path48"
       style="opacity:1;fill:#2d3339;fill-opacity:1" />
    <path
       d="m 190,252 h 50 v 0.87475 h -50 z"
       fill="#ffffff"
       opacity="0.1"
       id="path50"
       style="opacity:0.35" />
  </g>
  <g
     id="shadow-topright"
     transform="matrix(0,-0.61655092,-0.61655204,0,127.95116,67.206092)">
    <path
       d="m 108.99827,101.93975 v 34.00059 H 82.155698 a 7.15802,7.15802 0 0 0 -7.158021,-7.15802 v -26.84257 z"
       fill="url(#radialGradient904)"
       id="path53"
       style="opacity:0.05;fill:url(#radialGradient904);stroke-width:0.894753" />
  </g>
  <g
     id="shadow-bottomright"
     transform="matrix(0.61655204,0,0,-0.61655204,-2.1078913,127.95116)">
    <path
       d="m 108.99827,101.93975 v 34.00059 H 82.155698 a 7.15802,7.15802 0 0 0 -7.158021,-7.15802 v -26.84257 z"
       fill="url(#radialGradient922)"
       id="path58"
       style="opacity:0.05;fill:url(#radialGradient922);stroke-width:0.894753" />
  </g>
  <g
     id="shadow-bottomleft"
     transform="matrix(0,0.61655204,0.61655204,0,-62.851161,-2.1078913)">
    <path
       d="m 108.99827,101.93975 v 34.00059 H 82.155698 a 7.15802,7.15802 0 0 0 -7.158021,-7.15802 v -26.84257 z"
       fill="url(#radialGradient940)"
       id="path63"
       style="opacity:0.05;fill:url(#radialGradient940);stroke-width:0.894753" />
  </g>
  <g
     id="mask-left"
     transform="matrix(0,0.4634438,1.1034375,0,-280.89263,-98.300776)"
     style="fill:#1b1e20;fill-opacity:1">
    <path
       d="m 254,347 h 50 l 10e-6,4 h -50 z"
       id="path68"
       style="fill:#1b1e20;fill-opacity:1" />
  </g>
  <rect
     id="mask-center"
     x="106.41392"
     y="19.413891"
     width="23.172186"
     height="23.172186"
     style="fill:#1b1e20;fill-opacity:1;stroke-width:0.55172" />
  <g
     id="mask-top"
     transform="matrix(0.4634438,0,0,1.1034375,-11.300784,-367.89268)"
     style="fill:#1b1e20;fill-opacity:1">
    <path
       d="m 254,347 h 50 l 10e-6,4 h -50 z"
       id="path75"
       style="fill:#1b1e20;fill-opacity:1" />
  </g>
  <g
     id="mask-right"
     transform="matrix(0,0.4634438,-1.1034375,0,516.8927,-98.300776)"
     style="fill:#1b1e20;fill-opacity:1">
    <path
       d="m 254,347 h 50 l 10e-6,4 h -50 z"
       id="path78"
       style="fill:#1b1e20;fill-opacity:1" />
  </g>
  <g
     id="mask-topleft"
     transform="matrix(0,-0.96551451,0.96551451,0,-233.03308,312.37982)"
     style="fill:#1b1e20;fill-opacity:1">
    <path
       d="m 303.43,347 a 4.5714,4.5714 0 0 1 4.5714,4.5714 H 303.43 Z"
       id="path81"
       style="fill:#1b1e20;fill-opacity:1" />
    <path
       d="m 303.43,347.57143 a 4,4 0 0 1 4,4 h -4 z"
       id="path1"
       style="fill:#1b1e20;fill-opacity:1" />
  </g>
  <g
     id="mask-bottom"
     transform="matrix(0.4634438,0,0,-1.1034375,-11.300784,429.89265)"
     style="fill:#1b1e20;fill-opacity:1">
    <path
       d="m 254,347 h 50 l 10e-6,4 h -50 z"
       id="path84"
       style="fill:#1b1e20;fill-opacity:1" />
  </g>
  <rect
     id="hint-stretch-borders"
     x="94.002129"
     y="-10.997875"
     width="5"
     height="5"
     fill="#e4720c"
     style="fill:#373d48;fill-opacity:1" />
  <g
     id="right"
     transform="matrix(-0.63048166,0,0,0.4634323,163.9194,-99.063923)">
    <path
       d="m 183,259 v 50 l 7,10e-6 v -50 z"
       class="ColorScheme-Background"
       fill="currentColor"
       id="path94"
       style="opacity:1;fill:#2d3339;fill-opacity:1" />
  </g>
  <g
     id="left"
     transform="matrix(-0.63048166,0,0,0.4634323,172.27691,-99.063923)">
    <path
       d="m 247,259 v 50 l -7,10e-6 v -50 z"
       class="ColorScheme-Background"
       fill="currentColor"
       id="path97"
       style="opacity:1;fill:#2d3339;fill-opacity:1" />
  </g>
  <g
     id="bottom"
     transform="matrix(0.46338657,0,0,-0.63054389,-67.07882,207.4414)">
    <path
       d="m 190,252 h 50 v 6.9999 h -50 z"
       class="ColorScheme-Background"
       fill="currentColor"
       id="path100"
       style="opacity:1;fill:#2d3339;fill-opacity:1" />
  </g>
  <g
     id="topright"
     transform="matrix(0.55165067,0,0,0.55170511,4.9667505,4.9656041)">
    <path
       d="m 71,20.999 a 8,8 0 0 1 8,8 h -8 z"
       class="ColorScheme-Background"
       fill="currentColor"
       id="path103"
       style="opacity:1;fill:#2d3339;fill-opacity:1" />
    <path
       d="m 71,20.998 v 1 a 8,8 0 0 1 7.9355,7 h 0.06445 a 8,8 0 0 0 -8,-8 z"
       fill="#ffffff"
       opacity="0.1"
       id="path105"
       style="opacity:0.35" />
  </g>
  <g
     id="bottomleft"
     transform="matrix(0.55165067,0,0,0.55170511,4.9667505,4.9656041)">
    <path
       d="m 29,79 a 8,8 0 0 1 -8,-8 h 8 z"
       class="ColorScheme-Background"
       fill="currentColor"
       id="path108"
       style="opacity:1;fill:#2d3339;fill-opacity:1" />
  </g>
  <g
     id="bottomright"
     transform="matrix(0,-1.1035207,-1.1034118,0,101.44495,51.86109)">
    <path
       d="M 3.0005,51.939 A 3.9995,3.9995 0 0 1 7,47.9395 v 3.9995 z"
       class="ColorScheme-Background"
       fill="currentColor"
       id="path111"
       style="opacity:1;fill:#2d3339;fill-opacity:1" />
  </g>
  <rect
     id="center"
     transform="scale(-1)"
     x="-44.133949"
     y="-44.136665"
     width="23.169333"
     height="23.171619"
     class="ColorScheme-Background"
     fill="currentColor"
     style="opacity:1;fill:#2d3339;fill-opacity:1;stroke-width:0.551674" />
  <rect
     id="shadow-hint-left-margin"
     x="0.0011615081"
     y="31.446636"
     width="16.550247"
     height="2.2066998"
     fill="#f99133"
     style="opacity:0.01;fill:#917c6f;fill-opacity:1;stroke-width:0.551671" />
  <rect
     id="shadow-hint-right-margin"
     x="48.548565"
     y="31.446636"
     width="16.550247"
     height="2.2066998"
     fill="#f99133"
     style="opacity:0.01;fill:#917c6f;fill-opacity:1;stroke-width:0.551671" />
  <rect
     id="shadow-hint-top-margin"
     x="31.446636"
     y="0.0011615081"
     width="2.2066998"
     height="16.550247"
     fill="#f99133"
     style="opacity:0.01;fill:#917c6f;fill-opacity:1;stroke-width:0.551671" />
  <rect
     id="shadow-hint-bottom-margin"
     x="31.446636"
     y="48.548565"
     width="2.2066998"
     height="16.550247"
     fill="#f99133"
     style="opacity:0.01;fill:#917c6f;fill-opacity:1;stroke-width:0.551671" />
  <g
     id="topleft"
     transform="matrix(0,1.1034102,1.1033013,0,-36.33975,13.241181)">
    <path
       d="m 7,47.939 a 4,4 0 0 0 -4,4 h 4 z"
       class="ColorScheme-Background"
       fill="currentColor"
       id="path119"
       style="opacity:1;fill:#2d3339;fill-opacity:1" />
    <path
       transform="matrix(0,0.5,0.5,0,-7.5,37.439)"
       d="m 29,21 a 8,8 0 0 0 -8,8 h 0.06836 a 8,8 0 0 1 7.9316,-7 v -1 z"
       fill="#ffffff"
       opacity="0.1"
       id="path121"
       style="opacity:0.35" />
  </g>
  <rect
     id="hint-top-margin"
     x="31.445982"
     y="16.551411"
     width="2.2066026"
     height="4.4136405"
     fill="#37a4f5"
     style="opacity:0.01;fill:#ff00ff;stroke-width:0.551674" />
  <rect
     id="hint-right-margin"
     x="44.133949"
     y="31.447449"
     width="4.4132051"
     height="2.2068202"
     fill="#37a4f5"
     style="opacity:0.01;fill:#ff00ff;stroke-width:0.551674" />
  <rect
     id="hint-left-margin"
     x="16.551414"
     y="31.447449"
     width="4.4132051"
     height="2.2068202"
     fill="#37a4f5"
     style="opacity:0.01;fill:#ff00ff;stroke-width:0.551674" />
  <rect
     id="hint-bottom-margin"
     x="31.445982"
     y="44.136665"
     width="2.2066026"
     height="4.4136405"
     fill="#37a4f5"
     style="opacity:0.01;fill:#ff00ff;stroke-width:0.551674" />
  <rect
     style="opacity:0.01;fill:#00ffff;fill-opacity:1;stroke:none;stroke-width:0.100723"
     id="hint-top-inset"
     width="2.2066026"
     height="0.11034103"
     x="34.204231"
     y="16.551411" />
  <rect
     y="48.439957"
     x="34.204231"
     height="0.11034103"
     width="2.2066026"
     id="hint-bottom-inset"
     style="opacity:0.01;fill:#00ffff;fill-opacity:1;stroke:none;stroke-width:0.100722" />
  <rect
     y="-48.547153"
     x="34.205971"
     height="0.11033014"
     width="2.2068202"
     id="hint-right-inset"
     style="opacity:0.01;fill:#00ffff;fill-opacity:1;stroke:none;stroke-width:0.100722"
     transform="rotate(90)" />
  <rect
     style="opacity:0.01;fill:#00ffff;fill-opacity:1;stroke:none;stroke-width:0.100722"
     id="hint-left-inset"
     width="2.2068202"
     height="0.11033014"
     x="34.205971"
     y="-16.661745"
     transform="rotate(90)" />
  <rect
     y="0.0011615081"
     x="34.205006"
     height="16.550247"
     width="2.2066998"
     id="shadow-hint-top-inset"
     style="opacity:0.01;fill:#008080;fill-opacity:1;stroke:none;stroke-width:1.23357" />
  <rect
     style="opacity:0.01;fill:#008080;fill-opacity:1;stroke:none;stroke-width:1.23356"
     id="shadow-hint-bottom-inset"
     width="2.2066998"
     height="16.550247"
     x="34.205006"
     y="48.548565" />
  <rect
     transform="rotate(90)"
     style="opacity:0.01;fill:#008080;fill-opacity:1;stroke:none;stroke-width:0.78019"
     id="shadow-hint-right-inset"
     width="2.2066998"
     height="16.550247"
     x="34.205006"
     y="-65.098801" />
  <rect
     transform="rotate(90)"
     y="-16.551411"
     x="34.205006"
     height="16.550247"
     width="2.2066998"
     id="shadow-hint-left-inset"
     style="opacity:0.01;fill:#008080;fill-opacity:1;stroke:none;stroke-width:0.780184" />
  <rect
     id="shadow-center"
     transform="scale(-1)"
     x="-80.002129"
     y="-201.00212"
     width="42"
     height="42"
     style="fill:none" />
  <use
     x="0"
     y="0"
     xlink:href="#mask-topleft"
     id="mask-topright"
     transform="rotate(90,118.00003,30.999977)"
     style="fill:#1b1e20;fill-opacity:1" />
  <use
     x="0"
     y="0"
     xlink:href="#mask-topleft"
     id="mask-bottomright"
     transform="rotate(180,117.99999,30.999993)"
     style="fill:#1b1e20;fill-opacity:1" />
  <use
     x="0"
     y="0"
     xlink:href="#mask-topleft"
     id="mask-bottomleft"
     transform="rotate(-90,118,30.999992)"
     style="fill:#1b1e20;fill-opacity:1" />
</svg>
